<?xml version="1.0" standalone="no"?>
<!DOCTYPE svg PUBLIC "-//W3C//DTD SVG 20010904//EN"
 "http://www.w3.org/TR/2001/REC-SVG-20010904/DTD/svg10.dtd">
<svg version="1.0" xmlns="http://www.w3.org/2000/svg"
 width="460.000000pt" height="460.000000pt" viewBox="0 0 460.000000 460.000000"
 preserveAspectRatio="xMidYMid meet">
<metadata>
Created by potrace 1.14, written by Peter Selinger 2001-2017
</metadata>
<g transform="translate(0.000000,460.000000) scale(0.100000,-0.100000)"
fill="#000000" stroke="none">
<path d="M2090 4508 c0 -4 -9 -5 -20 -3 -11 2 -23 -1 -26 -7 -4 -7 -2 -8 4 -4
7 4 12 1 12 -6 0 -10 -22 -13 -95 -13 -52 0 -95 -3 -95 -6 0 -7 -44 -4 -57 4
-5 3 -9 -3 -9 -13 0 -12 4 -16 11 -10 6 5 17 5 24 1 9 -6 10 -11 2 -15 -6 -4
-11 -2 -11 5 0 8 -4 8 -12 2 -7 -6 -42 -11 -78 -13 -36 -1 -70 -3 -77 -3 -7 0
-10 -4 -7 -8 2 -5 12 -5 22 -2 15 6 15 5 -1 -12 -16 -15 -20 -16 -28 -4 -6 10
-9 10 -9 2 0 -9 -16 -13 -45 -13 -38 0 -45 -3 -45 -20 0 -17 -7 -20 -45 -21
-67 -2 -70 -3 -69 -22 1 -13 -7 -17 -32 -18 -56 -2 -58 -3 -64 -24 -3 -13 -13
-20 -27 -19 -21 1 -27 -6 -24 -31 1 -5 -5 -2 -13 8 -11 15 -15 15 -19 3 -3 -8
-1 -17 6 -20 7 -4 2 -4 -11 -2 -23 4 -56 -19 -47 -33 2 -5 -3 -8 -13 -8 -52 0
-62 -4 -62 -23 0 -16 -7 -20 -32 -21 -18 -1 -36 -1 -40 0 -5 0 -8 -8 -8 -19 0
-18 -10 -25 -33 -21 -4 1 -12 -11 -18 -26 -7 -20 -12 -24 -18 -14 -6 9 -11 4
-19 -18 -8 -22 -15 -29 -26 -25 -9 3 -16 2 -16 -4 0 -6 -9 -8 -20 -5 -12 3
-20 2 -19 -3 4 -23 -3 -34 -22 -34 -16 0 -20 -5 -16 -19 4 -16 -1 -21 -22 -23
-20 -2 -25 -8 -23 -24 2 -16 -3 -20 -20 -20 -14 1 -24 -6 -27 -19 -3 -11 -13
-20 -21 -20 -8 0 -16 -10 -18 -23 -2 -15 -9 -22 -20 -20 -11 2 -18 -5 -20 -19
-2 -15 -10 -23 -23 -23 -11 0 -19 -7 -19 -16 0 -9 -12 -27 -26 -40 -14 -13
-22 -29 -19 -34 3 -6 0 -10 -7 -10 -9 0 -9 -3 2 -10 13 -9 13 -10 0 -11 -8 -1
-20 -1 -27 0 -6 1 -10 -9 -9 -22 2 -14 -2 -24 -10 -24 -7 0 -10 5 -7 11 3 6 0
5 -8 -2 -8 -7 -15 -17 -15 -22 -1 -6 -2 -14 -3 -20 0 -5 -9 -10 -20 -10 -10 0
-19 -6 -18 -12 2 -51 -4 -68 -23 -68 -16 0 -20 -7 -21 -32 -1 -18 -1 -36 -1
-40 1 -3 -4 -8 -12 -11 -7 -3 -13 1 -13 9 0 8 4 14 9 14 4 0 8 4 8 8 0 5 -6 9
-13 9 -13 0 -19 -20 -19 -68 0 -19 -6 -25 -21 -25 -17 1 -22 -5 -23 -29 0 -16
-2 -34 -4 -40 -1 -5 -2 -14 0 -20 1 -5 -4 -4 -11 3 -18 17 -34 15 -19 -3 7 -9
8 -15 2 -15 -6 0 -9 -11 -7 -25 1 -14 -2 -28 -7 -31 -5 -3 -7 -13 -4 -23 5
-14 4 -13 -8 2 -7 9 -16 17 -20 17 -9 0 -3 -24 9 -32 6 -5 5 -8 -2 -8 -8 0
-13 -15 -13 -40 0 -32 -4 -40 -18 -40 -16 0 -19 -9 -21 -52 -2 -29 -3 -59 -4
-66 0 -7 -8 -10 -17 -7 -13 4 -17 -3 -19 -37 -1 -23 -7 -46 -14 -50 -9 -6 -9
-8 0 -8 6 0 11 -9 10 -20 -1 -23 -8 -25 -24 -9 -8 8 -13 7 -18 -2 -5 -8 -4
-10 4 -5 6 4 14 0 17 -8 3 -9 11 -13 18 -9 6 4 5 -1 -3 -10 -14 -18 -26 -23
-16 -8 3 5 1 12 -4 15 -5 3 -8 -10 -7 -29 1 -19 -1 -35 -4 -35 -8 0 -5 -44 3
-57 4 -7 3 -14 -1 -17 -5 -3 -8 -15 -7 -28 1 -13 -3 -26 -9 -30 -8 -6 -8 -8 1
-8 7 0 10 -10 7 -27 -3 -15 -6 -39 -7 -54 -1 -15 -4 -27 -7 -27 -3 0 -9 0 -15
-1 -15 -2 -12 -370 3 -397 8 -16 8 -24 -1 -34 -10 -12 -9 -12 5 -1 14 10 15
18 7 32 -5 10 -7 19 -3 19 3 0 1 7 -6 15 -7 9 -8 15 -2 15 14 0 25 -29 25 -70
0 -23 -4 -34 -12 -32 -7 1 -10 -2 -6 -8 3 -6 10 -8 14 -6 4 3 7 -18 6 -47 0
-29 3 -60 7 -70 5 -9 5 -17 0 -17 -5 0 -9 -7 -9 -15 0 -9 6 -14 13 -11 7 3 18
-2 24 -10 7 -8 8 -14 2 -14 -5 0 -12 -9 -15 -21 -4 -16 -3 -18 7 -9 11 8 14
-2 15 -47 0 -32 6 -59 11 -61 6 -2 10 -8 10 -13 0 -6 -4 -8 -8 -5 -4 2 -8 -4
-8 -14 0 -10 6 -16 13 -13 7 3 10 9 7 14 -3 5 0 9 5 9 6 0 11 -9 11 -21 0 -13
-4 -18 -12 -13 -10 6 -11 4 0 -7 6 -7 12 -26 12 -41 0 -21 5 -28 20 -28 17 0
20 -7 21 -45 1 -25 3 -49 4 -55 1 -5 3 -15 4 -21 1 -8 6 -8 16 1 16 13 17 8
18 -62 0 -22 5 -28 23 -28 19 0 22 -4 18 -30 -3 -18 -1 -30 6 -30 6 0 8 -4 5
-10 -3 -5 3 -10 14 -10 18 0 21 -5 18 -40 -3 -36 -1 -40 20 -40 13 0 23 -6 22
-13 -3 -27 2 -37 20 -37 13 0 19 -6 19 -17 -3 -37 12 -72 27 -67 15 6 20 -5
15 -35 -1 -8 4 -12 14 -8 15 6 40 -15 30 -26 -4 -3 -16 -2 -28 4 -20 10 -20
10 -2 -5 11 -9 24 -16 29 -16 5 0 6 -7 3 -16 -3 -8 -2 -12 4 -9 6 3 10 1 10
-4 0 -6 6 -10 12 -8 7 1 14 -8 16 -20 2 -15 10 -23 23 -23 12 0 19 -7 19 -20
0 -14 7 -20 21 -20 16 0 20 -5 17 -18 -3 -10 1 -23 9 -30 7 -8 13 -8 13 -2 0
5 5 10 10 10 6 0 10 -11 10 -24 0 -13 7 -27 16 -30 10 -4 13 -2 8 7 -6 8 -3 8
8 -1 9 -8 14 -20 11 -28 -4 -12 11 -19 38 -16 4 1 6 -9 5 -21 -1 -18 4 -21 23
-19 20 3 23 0 18 -17 -4 -17 -1 -21 19 -21 17 0 24 -6 24 -20 0 -13 7 -20 20
-20 11 0 20 -4 20 -10 0 -5 8 -7 18 -4 16 5 16 5 0 -6 -10 -6 -18 -16 -18 -22
0 -7 4 -7 13 0 18 15 41 -2 35 -26 -4 -15 -2 -19 8 -15 8 3 12 8 10 12 -3 4 0
13 6 21 8 13 9 12 5 -2 -7 -20 17 -42 38 -34 8 3 15 1 15 -4 0 -6 -5 -10 -11
-10 -6 0 -3 -7 6 -16 8 -9 22 -13 30 -10 13 5 20 -11 16 -36 -2 -12 14 -9 28
5 11 9 13 9 7 0 -5 -9 1 -13 18 -13 19 0 26 -5 26 -20 0 -13 7 -20 20 -20 11
0 29 -8 40 -18 11 -9 33 -19 48 -22 20 -4 27 -11 26 -28 -1 -17 2 -20 11 -12
9 7 15 7 19 1 4 -5 15 -8 26 -6 11 2 22 -1 26 -7 4 -7 9 -6 14 1 5 9 11 7 21
-5 8 -10 9 -15 4 -12 -6 4 -17 2 -25 -4 -12 -8 -12 -9 2 -4 10 3 19 2 22 -2 3
-4 21 -9 42 -10 46 -3 55 -8 47 -27 -3 -10 1 -15 13 -13 53 4 95 -2 88 -14 -5
-9 -2 -9 9 1 18 14 24 2 8 -14 -10 -10 -9 -11 91 -16 50 -2 56 -5 47 -20 -7
-13 -5 -17 9 -15 9 2 20 -2 24 -8 5 -8 8 -7 8 2 0 8 5 10 12 6 7 -5 52 -8 100
-9 48 0 90 -4 95 -8 4 -5 -1 -5 -11 -1 -15 6 -17 4 -11 -6 5 -8 4 -11 -3 -6
-6 3 -13 2 -16 -3 -4 -5 -2 -12 3 -15 5 -4 12 -2 16 4 4 6 12 7 18 3 19 -12
311 -11 319 1 5 8 8 8 8 0 0 -11 258 -13 277 -1 6 4 14 2 16 -3 3 -6 4 -5 3 2
-2 8 -16 12 -32 11 -16 -1 -21 1 -11 4 9 2 15 8 13 11 -2 4 39 8 92 9 126 2
122 1 122 14 0 5 -4 8 -9 4 -5 -3 -12 -2 -15 3 -3 5 2 9 11 9 9 0 18 -9 21
-19 5 -22 22 -13 22 13 0 11 7 19 16 19 14 0 15 -2 3 -17 -13 -17 -13 -17 7 0
11 9 35 17 53 17 22 0 30 4 25 12 -5 7 -3 8 7 2 8 -4 22 -10 32 -11 15 -3 16
-1 5 11 -7 8 -16 12 -20 9 -5 -2 -8 0 -8 5 0 5 15 10 33 10 17 0 47 2 65 3 32
2 32 2 15 23 -10 12 -12 16 -4 10 10 -9 19 -9 38 1 14 7 36 11 50 9 17 -3 22
-1 18 7 -5 7 0 7 16 -1 13 -7 21 -9 17 -5 -17 19 12 42 51 41 22 -1 39 1 39 4
-2 20 3 40 10 39 27 -4 43 3 40 18 -3 18 -1 18 70 22 21 1 24 3 12 11 -11 7
-11 10 -2 10 7 0 10 5 7 10 -4 6 -3 10 2 9 4 -1 23 -1 41 0 25 1 32 5 30 18
-2 11 6 19 22 23 14 3 25 12 25 20 0 8 9 15 20 16 22 1 65 21 65 30 0 3 -6 2
-12 -2 -9 -5 -8 -2 1 9 7 10 21 16 30 15 10 -2 17 5 19 20 3 17 8 21 23 17 15
-5 19 -1 19 19 0 14 5 26 11 26 6 0 8 -8 5 -17 -5 -14 -2 -13 11 3 10 12 25
20 34 19 9 -2 16 4 16 11 0 17 -14 18 -19 2 -3 -7 -7 -5 -11 6 -4 9 -3 15 1
12 13 -8 53 24 46 36 -4 6 -2 8 4 4 6 -3 14 -2 17 4 4 6 15 8 25 5 13 -4 19 1
24 20 4 14 11 25 16 25 6 0 10 5 10 11 0 5 -5 7 -10 4 -16 -10 -11 1 7 16 11
10 14 10 9 2 -4 -7 -2 -13 3 -13 10 0 16 21 12 42 0 5 6 8 15 8 14 0 14 -3 4
-15 -9 -10 -9 -15 -1 -15 10 0 15 13 12 32 0 5 4 8 10 8 6 0 8 7 5 16 -4 11 1
18 14 21 12 3 20 14 20 26 0 11 3 17 6 14 12 -11 43 13 38 28 -4 10 4 18 22
25 17 7 24 14 17 18 -15 10 7 30 30 26 9 -1 15 2 11 7 -3 5 -10 7 -15 4 -5 -4
-9 -1 -9 5 0 6 -5 8 -12 4 -6 -4 -8 -3 -5 4 4 5 16 8 27 5 16 -4 20 0 20 21 0
23 9 31 33 27 4 0 7 19 7 44 0 35 3 43 15 39 8 -4 12 -11 8 -17 -3 -6 -1 -7 5
-3 7 4 12 20 12 37 0 26 8 34 32 30 4 0 7 8 7 19 1 11 1 29 2 39 0 11 8 26 17
33 11 9 14 10 8 1 -4 -7 -2 -13 3 -13 10 0 16 38 12 64 -2 12 32 35 43 29 5
-4 6 -1 2 6 -6 8 -12 9 -20 2 -9 -8 -13 -7 -13 4 0 7 3 14 6 13 24 -2 30 6 29
41 0 46 7 62 26 55 10 -4 14 6 16 38 3 83 4 84 33 79 6 -1 10 37 11 121 0 25
2 26 16 13 19 -18 21 -11 23 128 1 82 4 95 14 81 10 -14 13 -14 13 -3 0 12 2
12 11 -1 9 -13 10 -13 6 0 -2 8 -9 14 -15 13 -5 -1 -12 4 -15 11 -3 7 0 13 6
12 7 0 12 4 12 9 0 6 -4 9 -10 7 -5 -2 -3 5 6 15 16 19 19 59 6 80 -4 6 -4 14
1 16 4 3 7 101 7 219 -1 185 -3 213 -16 212 -9 -1 -16 4 -16 11 0 7 6 11 13 8
6 -2 15 0 19 6 3 7 -2 11 -14 11 -13 0 -21 7 -21 16 0 13 3 14 14 5 11 -9 16
-9 22 0 4 8 3 9 -4 5 -7 -4 -12 -2 -12 3 0 6 -6 11 -13 11 -10 0 -13 17 -13
65 1 36 -2 65 -5 65 -3 0 -6 7 -6 15 0 8 5 15 11 15 6 0 5 4 -2 9 -7 4 -12 14
-10 21 2 8 -3 14 -11 15 -15 0 -19 14 -22 88 -3 48 -7 55 -25 37 -7 -7 -11 -7
-11 2 -1 7 -2 39 -4 70 -2 49 -4 54 -16 42 -8 -8 -15 -14 -17 -14 -2 0 -7 45
-9 87 -1 17 -6 35 -11 40 -5 5 -6 3 -2 -4 4 -7 3 -13 -2 -13 -18 0 -30 25 -27
58 1 18 -1 35 -6 37 -4 3 -6 13 -3 23 5 14 4 14 -4 2 -6 -8 -9 -17 -6 -21 2
-4 -1 -11 -7 -15 -7 -4 -9 -3 -5 4 3 5 0 13 -6 15 -10 4 -10 6 0 6 6 1 12 6
12 12 0 5 -4 8 -8 5 -7 -4 -12 19 -15 65 -1 10 -7 15 -14 12 -10 -4 -11 -9 -2
-19 10 -12 9 -13 -5 -8 -9 3 -16 11 -15 18 1 6 1 24 0 40 -1 23 -5 27 -21 23
-18 -5 -20 0 -20 39 0 24 -3 43 -7 43 -29 -5 -41 3 -36 21 3 12 0 20 -6 20 -7
0 -9 6 -6 13 4 6 -1 3 -9 -7 -16 -20 -16 -20 -17 0 -1 10 -1 26 0 36 1 9 -3
19 -9 23 -6 3 -7 11 -4 17 4 7 2 8 -5 4 -9 -6 -9 -11 -1 -21 9 -10 7 -13 -7
-11 -13 2 -18 11 -18 34 1 17 -3 28 -7 26 -4 -3 -8 0 -8 5 0 6 -6 10 -12 9 -8
-2 -13 7 -12 20 0 17 -5 22 -23 22 -18 0 -23 6 -23 24 0 17 -5 23 -17 22 -11
-2 -20 5 -24 18 -3 12 -13 20 -22 20 -8 -1 -18 5 -21 12 -3 8 0 14 7 14 7 0 3
7 -7 15 -16 12 -22 12 -28 2 -5 -8 -8 -6 -9 8 -1 11 -1 23 0 28 0 4 -11 7 -26
7 -22 0 -25 2 -13 10 10 6 11 10 3 10 -7 0 -13 6 -13 14 0 9 -7 12 -21 9 -16
-5 -20 -2 -17 13 2 13 -4 20 -19 22 -21 3 -28 13 -24 35 0 4 -8 7 -19 7 -11 0
-20 5 -20 11 0 5 -6 7 -12 3 -10 -6 -10 -5 -1 8 7 8 10 18 6 22 -4 4 -13 -4
-20 -16 -12 -21 -13 -21 -11 -3 2 15 -3 20 -19 19 -13 0 -23 5 -23 12 0 8 7
11 18 8 9 -3 6 2 -8 10 -14 8 -35 15 -48 16 -20 0 -21 3 -12 21 10 17 9 20 -7
18 -26 -5 -43 9 -37 29 5 14 4 14 -4 2 -6 -8 -8 -18 -6 -22 6 -10 -10 -11 -19
-1 -4 3 -2 12 5 20 6 8 7 13 2 12 -5 -1 -22 -1 -37 0 -23 1 -27 5 -22 20 5 16
1 19 -20 17 -14 -2 -25 1 -25 5 0 5 -3 8 -7 8 -20 -3 -34 2 -29 10 3 5 -1 14
-9 21 -12 10 -15 10 -15 0 0 -9 -3 -10 -14 -1 -7 6 -21 9 -30 5 -12 -5 -16 0
-16 18 0 23 -4 25 -44 24 -34 -1 -44 3 -43 14 1 8 -2 16 -8 18 -5 1 -10 -2
-10 -7 0 -5 -3 -13 -7 -17 -4 -3 -6 3 -3 15 3 19 0 21 -46 21 -42 0 -49 3 -49
20 0 17 -7 20 -39 20 -29 0 -41 5 -45 18 -5 14 -18 19 -59 21 -89 4 -107 6
-105 16 2 6 11 9 21 9 10 -1 15 1 12 4 -9 10 -55 10 -49 0 3 -4 0 -8 -6 -8 -6
0 -8 -6 -4 -12 4 -7 -2 -5 -13 5 -11 9 -23 14 -28 10 -4 -5 -5 -2 -1 5 8 13
11 13 -104 15 -64 2 -75 5 -75 19 0 10 -2 18 -5 19 -10 3 -51 -13 -47 -18 3
-2 15 0 26 7 23 12 27 4 11 -20 -7 -11 -10 -11 -10 -2 0 7 -4 10 -10 7 -16
-10 -33 5 -21 19 8 9 7 13 -4 13 -15 0 -19 -10 -16 -36 2 -7 -3 -10 -9 -6 -6
3 -9 14 -8 23 3 15 -16 17 -189 17 -106 0 -193 -3 -193 -7z m39 -18 c-7 -5
-16 -7 -20 -4 -4 2 -10 0 -14 -6 -4 -6 -11 -8 -16 -5 -19 12 -8 21 27 22 23 0
31 -2 23 -7z m-428 -93 c-10 -9 -11 -8 -5 6 3 10 9 15 12 12 3 -3 0 -11 -7
-18z m1269 2 c0 -11 -36 -6 -47 6 -5 4 -2 5 5 1 6 -4 12 -3 12 3 0 6 7 8 15 5
8 -4 15 -10 15 -15z m-1380 -35 c0 -8 -19 -13 -24 -6 -3 5 1 9 9 9 8 0 15 -2
15 -3z m-127 -41 c-3 -7 -6 -13 -8 -13 -2 0 -5 6 -8 13 -3 8 1 14 8 14 7 0 11
-6 8 -14z m-380 -208 c-3 -9 -8 -14 -10 -11 -3 3 -2 9 2 15 9 16 15 13 8 -4z
m-169 -133 c3 -5 -1 -9 -9 -9 -8 0 -12 4 -9 9 3 4 7 8 9 8 2 0 6 -4 9 -8z
m3265 -505 c0 -9 -2 -8 -6 1 -2 6 -10 9 -15 6 -7 -4 -8 -2 -4 5 9 13 26 5 25
-12z m-3814 -157 c3 -5 1 -10 -4 -10 -6 0 -11 5 -11 10 0 6 2 10 4 10 3 0 8
-4 11 -10z m4058 -385 c-3 -9 -8 -14 -10 -11 -3 3 -2 9 2 15 9 16 15 13 8 -4z
m-4218 -35 c3 -6 -1 -7 -9 -4 -18 7 -21 14 -7 14 6 0 13 -4 16 -10z m4250 -89
c3 -5 2 -12 -3 -15 -5 -3 -9 1 -9 9 0 17 3 19 12 6z m-4329 -373 c4 -6 3 -8
-4 -4 -5 3 -13 0 -15 -6 -3 -8 -6 -6 -6 5 -1 19 14 23 25 5z m4346 -645 c-6
-2 -9 -10 -6 -15 4 -7 2 -8 -5 -4 -13 9 -5 26 12 25 9 0 8 -2 -1 -6z m-231
-566 c-10 -9 -11 -8 -5 6 3 10 9 15 12 12 3 -3 0 -11 -7 -18z m-3661 -287 c0
-5 -5 -10 -11 -10 -5 0 -7 5 -4 10 3 6 8 10 11 10 2 0 4 -4 4 -10z m3310 -201
c0 -5 -5 -7 -12 -3 -8 5 -9 1 -4 -12 5 -14 4 -16 -5 -7 -6 6 -8 16 -5 22 9 14
26 14 26 0z m-2633 -386 c0 -9 -4 -10 -14 -2 -7 6 -13 12 -13 14 0 1 6 2 13 2
8 0 14 -6 14 -14z m79 -32 c-4 -5 0 -11 6 -14 7 -3 3 -4 -9 -4 -17 1 -19 4
-11 14 12 15 22 18 14 4z m1964 -6 c0 -2 -6 -5 -13 -8 -8 -3 -14 1 -14 8 0 7
6 11 14 8 7 -3 13 -6 13 -8z m-1755 -75 c3 -5 1 -10 -4 -10 -6 0 -11 5 -11 10
0 6 2 10 4 10 3 0 8 -4 11 -10z m265 -94 c0 -2 -7 -7 -16 -10 -8 -3 -12 -2 -9
4 6 10 25 14 25 6z"/>
<path d="M2760 4471 c0 -5 5 -13 10 -16 6 -3 10 -2 10 4 0 5 -4 13 -10 16 -5
3 -10 2 -10 -4z"/>
<path d="M1176 4211 c-4 -5 -2 -12 3 -15 5 -4 12 -2 15 3 4 5 2 12 -3 15 -5 4
-12 2 -15 -3z"/>
<path d="M937 4053 c-10 -9 -9 -23 1 -23 5 0 9 7 9 15 0 17 -1 18 -10 8z"/>
<path d="M554 3669 c-3 -6 -2 -15 3 -20 5 -5 9 -1 9 11 0 23 -2 24 -12 9z"/>
<path d="M4413 2995 c0 -7 6 -11 14 -8 7 3 13 6 13 8 0 2 -6 5 -13 8 -8 3 -14
-1 -14 -8z"/>
<path d="M186 2957 c3 -10 9 -15 12 -12 3 3 0 11 -7 18 -10 9 -11 8 -5 -6z"/>
<path d="M86 2538 c3 -4 9 -8 15 -8 5 0 9 4 9 8 0 5 -7 9 -15 9 -8 0 -12 -4
-9 -9z"/>
<path d="M88 2496 c-3 -14 -2 -26 2 -26 13 0 21 33 12 42 -6 6 -11 -1 -14 -16z"/>
<path d="M137 1823 c-4 -3 -7 -13 -7 -22 1 -13 3 -13 11 2 11 19 8 33 -4 20z"/>
<path d="M420 1101 c0 -6 5 -13 12 -17 6 -4 8 -3 4 4 -3 5 0 13 6 15 8 3 6 6
-4 6 -10 1 -18 -3 -18 -8z"/>
<path d="M3830 675 c-10 -12 -10 -15 4 -15 9 0 16 7 16 15 0 8 -2 15 -4 15 -2
0 -9 -7 -16 -15z"/>
<path d="M3578 473 c6 -2 9 -10 6 -15 -4 -7 -2 -8 5 -4 13 9 5 26 -12 25 -9 0
-8 -2 1 -6z"/>
<path d="M3371 338 c5 -10 11 -18 12 -18 2 0 3 8 4 18 1 10 -5 19 -12 19 -10
0 -11 -5 -4 -19z"/>
</g>
</svg>
